<?xml version="1.0" encoding="UTF-8"?>
<svg width="40" height="40" viewBox="0 0 40 40" fill="none" xmlns="http://www.w3.org/2000/svg">
  <rect width="40" height="40" rx="20" fill="#E2E8F0"/>
  <path d="M20 11C15.0294 11 11 15.0294 11 20C11 24.9706 15.0294 29 20 29C24.9706 29 29 24.9706 29 20C29 15.0294 24.9706 11 20 11ZM20 13C23.866 13 27 16.134 27 20C27 23.866 23.866 27 20 27C16.134 27 13 23.866 13 20C13 16.134 16.134 13 20 13Z" fill="#94A3B8"/>
  <path d="M20 15C18.3431 15 17 16.3431 17 18C17 19.6569 18.3431 21 20 21C21.6569 21 23 19.6569 23 18C23 16.3431 21.6569 15 20 15ZM20 17C20.5523 17 21 17.4477 21 18C21 18.5523 20.5523 19 20 19C19.4477 19 19 18.5523 19 18C19 17.4477 19.4477 17 20 17Z" fill="#94A3B8"/>
  <path d="M20 22C17.7909 22 16 23.7909 16 26H24C24 23.7909 22.2091 22 20 22Z" fill="#94A3B8"/>
</svg> 